# xmcd CD database file
#
# Track frame offsets:
#	150
#	21226
#	34414
#	55879
#	75004
#	96251
#	139783
#	156404
#	175303
#	194032
#	209458
#	224995
#	238194
#
# Disc length: 3429 seconds
#
# Revision: 1
# Processed by: cddbd v1.5.2PL0 Copyright (c) Steve Scherf et al.
# Submitted via: CDex 1.70beta2
#
DISCID=c60d630d
DTITLE=Henrik Freischlader Band - Get Closer
DYEAR=2007
DGENRE=Blues
TTITLE0=Someone Like Me
TTITLE1=You
TTITLE2=Too Cool For Me
TTITLE3=Keep Playin'
TTITLE4=I Give Up On Loving You
TTITLE5=She's Back For Another Try
TTITLE6=Sometimes
TTITLE7=As Long As
TTITLE8=Not Of That Kind
TTITLE9=Blues Music
TTITLE10=Busy
TTITLE11=Livin' It Up
TTITLE12=Get Closer
EXTD=YEAR: 2007
EXTT0=
EXTT1=
EXTT2=
EXTT3=
EXTT4=
EXTT5=
EXTT6=
EXTT7=
EXTT8=
EXTT9=
EXTT10=
EXTT11=
EXTT12=
PLAYORDER=
